{
  "accessors": [
    {
      "bufferView": 2,
      "componentType": 5126,
      "count": 11849,
      "max": [
        41.79022979736328,
        13.25,
        9.121085166931152
      ],
      "min": [
        -2.4425926208496094,
        -7.548375833721366e-06,
        -21.996795654296875
      ],
      "type": "VEC3"
    },
    {
      "bufferView": 2,
      "byteOffset": 142188,
      "componentType": 5126,
      "count": 11849,
      "max": [
        1.0,
        1.0,
        1.0
      ],
      "min": [
        -1.0,
        -1.0,
        -1.0
      ],
      "type": "VEC3"
    },
    {
      "bufferView": 1,
      "componentType": 5126,
      "count": 11849,
      "max": [
        0.998258113861084,
        0.9982373118400574
      ],
      "min": [
        0.0017370808636769652,
        0.0017375731840729713
      ],
      "type": "VEC2"
    },
    {
      "bufferView": 0,
      "componentType": 5125,
      "count": 16908,
      "type": "SCALAR"
    },
    {
      "bufferView": 2,
      "byteOffset": 284376,
      "componentType": 5126,
      "count": 1001,
      "max": [
        4.604880332946777,
        7.135568618774414,
        2.6674323081970215
      ],
      "min": [
        -39.47894287109375,
        -4.5363264083862305,
        -26.36951446533203
      ],
      "type": "VEC3"
    },
    {
      "bufferView": 2,
      "byteOffset": 296388,
      "componentType": 5126,
      "count": 1001,
      "max": [
        1.0,
        0.0009903375757858157,
        0.9999998807907104
      ],
      "min": [
        -1.0,
        -0.0006395388045348227,
        -0.9999998807907104
      ],
      "type": "VEC3"
    },
    {
      "bufferView": 1,
      "byteOffset": 94792,
      "componentType": 5126,
      "count": 1001,
      "max": [
        0.9985100030899048,
        0.9975451827049255
      ],
      "min": [
        0.00149021006654948,
        0.001489799004048109
      ],
      "type": "VEC2"
    },
    {
      "bufferView": 0,
      "byteOffset": 67632,
      "componentType": 5125,
      "count": 1065,
      "type": "SCALAR"
    },
    {
      "bufferView": 2,
      "byteOffset": 308400,
      "componentType": 5126,
      "count": 6237,
      "max": [
        10.504170417785645,
        22.727954864501953,
        22.173776626586914
      ],
      "min": [
        -18.794422149658203,
        -0.4943617582321167,
        -21.824174880981445
      ],
      "type": "VEC3"
    },
    {
      "bufferView": 2,
      "byteOffset": 383244,
      "componentType": 5126,
      "count": 6237,
      "max": [
        0.9978053569793701,
        1.0,
        0.9751622080802917
      ],
      "min": [
        -0.9978053569793701,
        -1.0,
        -0.9998133182525635
      ],
      "type": "VEC3"
    },
    {
      "bufferView": 1,
      "byteOffset": 102800,
      "componentType": 5126,
      "count": 6237,
      "max": [
        0.9983612895011902,
        0.9983593821525574
      ],
      "min": [
        0.001601576805114746,
        0.0016369284130632877
      ],
      "type": "VEC2"
    },
    {
      "bufferView": 0,
      "byteOffset": 71892,
      "componentType": 5125,
      "count": 7227,
      "type": "SCALAR"
    },
    {
      "bufferView": 2,
      "byteOffset": 458088,
      "componentType": 5126,
      "count": 680,
      "max": [
        4.792370796203613,
        22.9649600982666,
        17.221851348876953
      ],
      "min": [
        -14.77972412109375,
        -0.4943617284297943,
        -21.540281295776367
      ],
      "type": "VEC3"
    },
    {
      "bufferView": 2,
      "byteOffset": 466248,
      "componentType": 5126,
      "count": 680,
      "max": [
        0.9552711248397827,
        1.0,
        0.9592979550361633
      ],
      "min": [
        -0.955261766910553,
        -0.3420201539993286,
        -0.9441128373146057
      ],
      "type": "VEC3"
    },
    {
      "bufferView": 1,
      "byteOffset": 152696,
      "componentType": 5126,
      "count": 680,
      "max": [
        0.9982349276542664,
        0.9979934692382813
      ],
      "min": [
        0.0017577704275026917,
        0.0017608075868338346
      ],
      "type": "VEC2"
    },
    {
      "bufferView": 0,
      "byteOffset": 100800,
      "componentType": 5125,
      "count": 870,
      "type": "SCALAR"
    }
  ],
  "asset": {
    "extras": {
      "author": "EddyNL (https://sketchfab.com/EddyNL)",
      "license": "CC-BY-4.0 (http://creativecommons.org/licenses/by/4.0/)",
      "source": "https://sketchfab.com/3d-models/european-buildings-asset-pack-4-527d2af97314413d96f80f0f9c2ee49c",
      "title": "European Buildings Asset Pack 4"
    },
    "generator": "Sketchfab-12.84.0",
    "version": "2.0"
  },
  "bufferViews": [
    {
      "buffer": 0,
      "byteLength": 104280,
      "name": "floatBufferViews",
      "target": 34963
    },
    {
      "buffer": 0,
      "byteLength": 158136,
      "byteOffset": 104280,
      "byteStride": 8,
      "name": "floatBufferViews",
      "target": 34962
    },
    {
      "buffer": 0,
      "byteLength": 474408,
      "byteOffset": 262416,
      "byteStride": 12,
      "name": "floatBufferViews",
      "target": 34962
    }
  ],
  "buffers": [
    {
      "byteLength": 736824,
      "uri": "scene.bin"
    }
  ],
  "extensionsRequired": [
    "KHR_materials_pbrSpecularGlossiness"
  ],
  "extensionsUsed": [
    "KHR_materials_pbrSpecularGlossiness"
  ],
  "images": [
    {
      "uri": "textures/Villa_Wesendonck_building_diffuse.jpeg"
    },
    {
      "uri": "textures/Villa_Wesendonck_PNG_diffuse.png"
    },
    {
      "uri": "textures/Park_Villa_Rieter_building_diffuse.jpeg"
    },
    {
      "uri": "textures/Park_Villa_Rieter_PNG_diffuse.png"
    }
  ],
  "materials": [
    {
      "doubleSided": true,
      "extensions": {
        "KHR_materials_pbrSpecularGlossiness": {
          "diffuseFactor": [
            1.0,
            1.0,
            1.0,
            1.0
          ],
          "diffuseTexture": {
            "index": 0
          },
          "glossinessFactor": 0.0,
          "specularFactor": [
            0.0,
            0.0,
            0.0
          ]
        }
      },
      "name": "Villa_Wesendonck_building"
    },
    {
      "alphaMode": "BLEND",
      "doubleSided": true,
      "extensions": {
        "KHR_materials_pbrSpecularGlossiness": {
          "diffuseFactor": [
            1.0,
            1.0,
            1.0,
            1.0
          ],
          "diffuseTexture": {
            "index": 1
          },
          "glossinessFactor": 0.5,
          "specularFactor": [
            0.0,
            0.0,
            0.0
          ]
        }
      },
      "name": "Villa_Wesendonck_PNG"
    },
    {
      "doubleSided": true,
      "extensions": {
        "KHR_materials_pbrSpecularGlossiness": {
          "diffuseFactor": [
            1.0,
            1.0,
            1.0,
            1.0
          ],
          "diffuseTexture": {
            "index": 2
          },
          "glossinessFactor": 0.0,
          "specularFactor": [
            0.0,
            0.0,
            0.0
          ]
        }
      },
      "name": "Park_Villa_Rieter_building"
    },
    {
      "alphaMode": "BLEND",
      "doubleSided": true,
      "extensions": {
        "KHR_materials_pbrSpecularGlossiness": {
          "diffuseFactor": [
            1.0,
            1.0,
            1.0,
            1.0
          ],
          "diffuseTexture": {
            "index": 3
          },
          "glossinessFactor": 0.0,
          "specularFactor": [
            0.0,
            0.0,
            0.0
          ]
        }
      },
      "name": "Park_Villa_Rieter_PNG"
    }
  ],
  "meshes": [
    {
      "name": "Object_0",
      "primitives": [
        {
          "attributes": {
            "NORMAL": 1,
            "POSITION": 0,
            "TEXCOORD_0": 2
          },
          "indices": 3,
          "material": 0,
          "mode": 4
        }
      ]
    },
    {
      "name": "Object_1",
      "primitives": [
        {
          "attributes": {
            "NORMAL": 5,
            "POSITION": 4,
            "TEXCOORD_0": 6
          },
          "indices": 7,
          "material": 1,
          "mode": 4
        }
      ]
    },
    {
      "name": "Object_2",
      "primitives": [
        {
          "attributes": {
            "NORMAL": 9,
            "POSITION": 8,
            "TEXCOORD_0": 10
          },
          "indices": 11,
          "material": 2,
          "mode": 4
        }
      ]
    },
    {
      "name": "Object_3",
      "primitives": [
        {
          "attributes": {
            "NORMAL": 13,
            "POSITION": 12,
            "TEXCOORD_0": 14
          },
          "indices": 15,
          "material": 3,
          "mode": 4
        }
      ]
    }
  ],
  "nodes": [
    {
      "children": [
        1
      ],
      "matrix": [
        1.0,
        0.0,
        0.0,
        0.0,
        0.0,
        2.220446049250313e-16,
        -1.0,
        0.0,
        0.0,
        1.0,
        2.220446049250313e-16,
        0.0,
        0.0,
        0.0,
        0.0,
        1.0
      ],
      "name": "Sketchfab_model"
    },
    {
      "children": [
        2
      ],
      "name": "root"
    },
    {
      "children": [
        3,
        7
      ],
      "matrix": [
        1.0,
        0.0,
        0.0,
        0.0,
        0.0,
        2.220446049250313e-16,
        1.0,
        0.0,
        0.0,
        -1.0,
        2.220446049250313e-16,
        0.0,
        0.0,
        0.0,
        0.0,
        1.0
      ],
      "name": "GLTF_SceneRootNode"
    },
    {
      "children": [
        4,
        5
      ],
      "matrix": [
        0.8028386461333733,
        0.0,
        0.5961963672102776,
        0.0,
        0.0,
        1.0,
        0.0,
        0.0,
        -0.5961963672102776,
        -0.0,
        0.8028386461333733,
        0.0,
        45.546600341796875,
        0.0,
        28.498659133911133,
        1.0
      ],
      "name": "BUILDING_1"
    },
    {
      "mesh": 0,
      "name": "Object_4"
    },
    {
      "children": [
        6
      ],
      "matrix": [
        -0.9999998004883077,
        -0.0006316828420551968,
        -3.634245169290972e-07,
        0.0,
        -0.000631682945596145,
        0.999999600976495,
        0.0006316830748858269,
        0.0,
        -3.559898810787217e-08,
        0.0006316831784267369,
        -0.9999998004881607,
        0.0,
        2.3111915588378906,
        5.185815811157227,
        -17.655620574951172,
        1.0
      ],
      "name": "PNG_0"
    },
    {
      "mesh": 1,
      "name": "Object_6"
    },
    {
      "children": [
        8,
        9
      ],
      "matrix": [
        0.9549669177492938,
        0.0,
        0.29671229500041546,
        0.0,
        0.0,
        1.0,
        0.0,
        0.0,
        -0.29671229500041546,
        0.0,
        0.9549669177492938,
        0.0,
        28.566516876220703,
        0.4943666160106659,
        17.360719680786133,
        1.0
      ],
      "name": "Park Villa Rieter building_3"
    },
    {
      "mesh": 2,
      "name": "Object_8"
    },
    {
      "children": [
        10
      ],
      "name": "Park Villa Rieter PNG_2"
    },
    {
      "mesh": 3,
      "name": "Object_10"
    }
  ],
  "samplers": [
    {
      "magFilter": 9729,
      "minFilter": 9987,
      "wrapS": 10497,
      "wrapT": 10497
    }
  ],
  "scene": 0,
  "scenes": [
    {
      "name": "Sketchfab_Scene",
      "nodes": [
        0
      ]
    }
  ],
  "textures": [
    {
      "sampler": 0,
      "source": 0
    },
    {
      "sampler": 0,
      "source": 1
    },
    {
      "sampler": 0,
      "source": 2
    },
    {
      "sampler": 0,
      "source": 3
    }
  ]
}
